<svg xmlns="http://www.w3.org/2000/svg" xmlns:xlink="http://www.w3.org/1999/xlink" width="500" zoomAndPan="magnify" viewBox="0 0 375 374.999991" height="500" preserveAspectRatio="xMidYMid meet" version="1.0"><defs><g/><clipPath id="36b3e1540d"><path d="M 72.066406 11.980469 L 281 11.980469 L 281 288 L 72.066406 288 Z M 72.066406 11.980469 " clip-rule="nonzero"/></clipPath><clipPath id="e1e90a9b70"><path d="M 211.074219 222.417969 L 323.828125 222.417969 L 323.828125 362.980469 L 211.074219 362.980469 Z M 211.074219 222.417969 " clip-rule="nonzero"/></clipPath></defs><g clip-path="url(#36b3e1540d)"><path fill="#56cb24" d="M 130.75 55.589844 C 130.75 38.535156 144.625 24.660156 161.679688 24.660156 L 191.230469 24.660156 C 208.289062 24.660156 222.164062 38.535156 222.164062 55.589844 L 222.164062 79.152344 L 130.75 79.152344 Z M 183.367188 275.074219 L 121.355469 275.074219 C 101.21875 275.074219 84.835938 258.691406 84.835938 238.550781 L 84.835938 91.832031 L 118.070312 91.832031 L 118.070312 114.53125 C 118.070312 118.03125 120.910156 120.871094 124.410156 120.871094 C 127.910156 120.871094 130.75 118.03125 130.75 114.53125 L 130.75 91.832031 L 222.164062 91.832031 L 222.164062 114.53125 C 222.164062 118.03125 225 120.871094 228.5 120.871094 C 232.003906 120.871094 234.839844 118.03125 234.839844 114.53125 L 234.839844 91.832031 L 268.078125 91.832031 L 268.078125 212.578125 C 268.078125 216.078125 270.914062 218.914062 274.414062 218.914062 C 277.914062 218.914062 280.753906 216.078125 280.753906 212.578125 L 280.753906 85.492188 C 280.753906 81.992188 277.914062 79.152344 274.414062 79.152344 L 234.839844 79.152344 L 234.839844 55.589844 C 234.839844 31.542969 215.277344 11.980469 191.230469 11.980469 L 161.679688 11.980469 C 137.632812 11.980469 118.070312 31.542969 118.070312 55.589844 L 118.070312 79.152344 L 78.496094 79.152344 C 74.996094 79.152344 72.15625 81.992188 72.15625 85.492188 L 72.15625 238.550781 C 72.15625 265.679688 94.226562 287.75 121.355469 287.75 L 183.367188 287.75 C 186.871094 287.75 189.707031 284.910156 189.707031 281.410156 C 189.707031 277.910156 186.871094 275.074219 183.367188 275.074219 " fill-opacity="1" fill-rule="nonzero"/></g><g clip-path="url(#e1e90a9b70)"><path fill="#56cb24" d="M 298.953125 347.796875 L 271.472656 311.167969 C 270.46875 309.824219 268.964844 308.933594 267.300781 308.695312 C 267 308.652344 266.703125 308.632812 266.40625 308.632812 C 265.039062 308.632812 263.703125 309.070312 262.601562 309.898438 L 244.730469 323.304688 L 226.640625 241.035156 L 300.554688 281.429688 L 282.40625 295.046875 C 279.605469 297.144531 279.039062 301.117188 281.140625 303.917969 L 308.613281 340.550781 Z M 322.5625 338.011719 L 295.082031 301.382812 L 316.039062 285.664062 C 317.765625 284.367188 318.714844 282.289062 318.558594 280.136719 C 318.40625 277.988281 317.171875 276.0625 315.277344 275.03125 L 220.496094 223.230469 C 218.316406 222.039062 215.640625 222.230469 213.652344 223.722656 C 211.664062 225.214844 210.734375 227.730469 211.265625 230.15625 L 234.464844 335.644531 C 234.925781 337.753906 236.429688 339.476562 238.449219 340.226562 C 240.472656 340.976562 242.734375 340.648438 244.457031 339.355469 L 265.136719 323.847656 L 292.613281 360.476562 C 293.859375 362.136719 295.761719 363.011719 297.6875 363.011719 C 299.011719 363.011719 300.347656 362.597656 301.488281 361.742188 L 321.292969 346.886719 C 322.636719 345.878906 323.527344 344.375 323.765625 342.714844 C 324.003906 341.050781 323.570312 339.359375 322.5625 338.011719 " fill-opacity="1" fill-rule="nonzero"/></g><path fill="#56cb24" d="M 186.488281 177.238281 C 184.390625 174.4375 180.414062 173.871094 177.617188 175.96875 C 174.816406 178.070312 174.246094 182.042969 176.347656 184.84375 L 191.882812 205.554688 C 193.128906 207.214844 195.03125 208.089844 196.957031 208.089844 C 198.28125 208.089844 199.617188 207.679688 200.757812 206.820312 C 203.558594 204.722656 204.125 200.75 202.023438 197.949219 L 186.488281 177.238281 " fill-opacity="1" fill-rule="nonzero"/><path fill="#56cb24" d="M 232.875 168.21875 L 223.453125 194.964844 C 222.289062 198.265625 224.023438 201.886719 227.328125 203.046875 C 228.023438 203.292969 228.734375 203.410156 229.433594 203.410156 C 232.046875 203.410156 234.496094 201.78125 235.410156 199.175781 L 244.832031 172.429688 C 245.996094 169.128906 244.261719 165.507812 240.957031 164.34375 C 237.65625 163.179688 234.035156 164.914062 232.875 168.21875 " fill-opacity="1" fill-rule="nonzero"/><path fill="#56cb24" d="M 148.726562 233.527344 C 148.910156 236.90625 151.707031 239.519531 155.050781 239.519531 C 155.167969 239.519531 155.285156 239.515625 155.402344 239.507812 L 183.71875 237.949219 C 187.210938 237.757812 189.890625 234.769531 189.699219 231.273438 C 189.507812 227.777344 186.515625 225.101562 183.019531 225.292969 L 154.707031 226.851562 C 151.210938 227.042969 148.535156 230.03125 148.726562 233.527344 " fill-opacity="1" fill-rule="nonzero"/><g fill="#56cb24" fill-opacity="1"><g transform="translate(187.499992, 198.668894)"><g><path d="M 2.90625 0.125 C 2.476562 0.125 2.085938 0.0703125 1.734375 -0.03125 C 1.378906 -0.132812 1.078125 -0.269531 0.828125 -0.4375 C 0.585938 -0.613281 0.40625 -0.816406 0.28125 -1.046875 L 1.15625 -1.96875 L 1.265625 -1.96875 C 1.472656 -1.695312 1.71875 -1.488281 2 -1.34375 C 2.28125 -1.207031 2.585938 -1.140625 2.921875 -1.140625 C 3.222656 -1.140625 3.445312 -1.191406 3.59375 -1.296875 C 3.75 -1.410156 3.828125 -1.570312 3.828125 -1.78125 C 3.828125 -1.9375 3.769531 -2.066406 3.65625 -2.171875 C 3.550781 -2.273438 3.375 -2.359375 3.125 -2.421875 L 2.3125 -2.625 C 1.695312 -2.769531 1.242188 -2.992188 0.953125 -3.296875 C 0.671875 -3.597656 0.53125 -3.976562 0.53125 -4.4375 C 0.53125 -4.820312 0.628906 -5.15625 0.828125 -5.4375 C 1.023438 -5.726562 1.300781 -5.945312 1.65625 -6.09375 C 2.019531 -6.25 2.441406 -6.328125 2.921875 -6.328125 C 3.472656 -6.328125 3.929688 -6.242188 4.296875 -6.078125 C 4.671875 -5.921875 4.960938 -5.707031 5.171875 -5.4375 L 4.328125 -4.53125 L 4.21875 -4.53125 C 4.050781 -4.726562 3.859375 -4.867188 3.640625 -4.953125 C 3.421875 -5.046875 3.179688 -5.09375 2.921875 -5.09375 C 2.304688 -5.09375 2 -4.90625 2 -4.53125 C 2 -4.363281 2.054688 -4.226562 2.171875 -4.125 C 2.285156 -4.03125 2.484375 -3.953125 2.765625 -3.890625 L 3.53125 -3.71875 C 4.164062 -3.582031 4.628906 -3.363281 4.921875 -3.0625 C 5.210938 -2.769531 5.359375 -2.367188 5.359375 -1.859375 C 5.359375 -1.460938 5.257812 -1.113281 5.0625 -0.8125 C 4.863281 -0.519531 4.582031 -0.289062 4.21875 -0.125 C 3.851562 0.0390625 3.414062 0.125 2.90625 0.125 Z M 2.90625 0.125 "/></g></g></g></svg>