<svg xmlns="http://www.w3.org/2000/svg" xmlns:xlink="http://www.w3.org/1999/xlink" width="170" zoomAndPan="magnify" viewBox="0 0 127.5 36.000001" height="48" preserveAspectRatio="xMidYMid meet" version="1.0"><defs><g/><clipPath id="e5ceeed604"><path d="M 96.820312 0.933594 L 117 0.933594 L 117 27 L 96.820312 27 Z M 96.820312 0.933594 " clip-rule="nonzero"/></clipPath><clipPath id="7afaf4ebfb"><path d="M 109.949219 20.8125 L 120.597656 20.8125 L 120.597656 33.773438 L 109.949219 33.773438 Z M 109.949219 20.8125 " clip-rule="nonzero"/></clipPath></defs><g clip-path="url(#e5ceeed604)"><path fill="#56cb24" d="M 102.359375 5.054688 C 102.359375 3.441406 103.671875 2.132812 105.28125 2.132812 L 108.074219 2.132812 C 109.683594 2.132812 110.996094 3.441406 110.996094 5.054688 L 110.996094 7.277344 L 102.359375 7.277344 Z M 107.332031 25.785156 L 101.472656 25.785156 C 99.570312 25.785156 98.023438 24.238281 98.023438 22.335938 L 98.023438 8.476562 L 101.164062 8.476562 L 101.164062 10.621094 C 101.164062 10.949219 101.429688 11.21875 101.761719 11.21875 C 102.09375 11.21875 102.359375 10.949219 102.359375 10.621094 L 102.359375 8.476562 L 110.996094 8.476562 L 110.996094 10.621094 C 110.996094 10.949219 111.261719 11.21875 111.59375 11.21875 C 111.925781 11.21875 112.191406 10.949219 112.191406 10.621094 L 112.191406 8.476562 L 115.332031 8.476562 L 115.332031 19.882812 C 115.332031 20.210938 115.601562 20.480469 115.929688 20.480469 C 116.261719 20.480469 116.527344 20.210938 116.527344 19.882812 L 116.527344 7.878906 C 116.527344 7.546875 116.261719 7.277344 115.929688 7.277344 L 112.191406 7.277344 L 112.191406 5.054688 C 112.191406 2.78125 110.34375 0.933594 108.074219 0.933594 L 105.28125 0.933594 C 103.011719 0.933594 101.164062 2.78125 101.164062 5.054688 L 101.164062 7.277344 L 97.425781 7.277344 C 97.09375 7.277344 96.828125 7.546875 96.828125 7.878906 L 96.828125 22.335938 C 96.828125 24.898438 98.910156 26.980469 101.472656 26.980469 L 107.332031 26.980469 C 107.660156 26.980469 107.929688 26.714844 107.929688 26.382812 C 107.929688 26.050781 107.660156 25.785156 107.332031 25.785156 " fill-opacity="1" fill-rule="nonzero"/></g><g clip-path="url(#7afaf4ebfb)"><path fill="#56cb24" d="M 118.25 32.652344 L 115.652344 29.195312 C 115.558594 29.066406 115.414062 28.984375 115.257812 28.960938 C 115.230469 28.957031 115.203125 28.953125 115.175781 28.953125 C 115.046875 28.953125 114.917969 28.996094 114.816406 29.074219 L 113.125 30.339844 L 111.417969 22.570312 L 118.398438 26.386719 L 116.683594 27.671875 C 116.421875 27.871094 116.367188 28.246094 116.566406 28.507812 L 119.160156 31.96875 Z M 120.476562 31.730469 L 117.882812 28.269531 L 119.863281 26.785156 C 120.023438 26.664062 120.113281 26.464844 120.101562 26.261719 C 120.085938 26.058594 119.96875 25.878906 119.789062 25.78125 L 110.835938 20.886719 C 110.632812 20.773438 110.378906 20.792969 110.191406 20.933594 C 110.003906 21.074219 109.914062 21.3125 109.964844 21.542969 L 112.15625 31.507812 C 112.199219 31.703125 112.34375 31.867188 112.535156 31.9375 C 112.722656 32.007812 112.9375 31.980469 113.101562 31.855469 L 115.054688 30.390625 L 117.648438 33.851562 C 117.765625 34.007812 117.945312 34.089844 118.128906 34.089844 C 118.253906 34.089844 118.378906 34.050781 118.488281 33.972656 L 120.359375 32.566406 C 120.484375 32.472656 120.570312 32.332031 120.59375 32.171875 C 120.613281 32.015625 120.574219 31.855469 120.476562 31.730469 " fill-opacity="1" fill-rule="nonzero"/></g><path fill="#56cb24" d="M 107.625 16.542969 C 107.425781 16.277344 107.050781 16.226562 106.789062 16.421875 C 106.523438 16.621094 106.46875 16.996094 106.667969 17.261719 L 108.136719 19.21875 C 108.253906 19.375 108.433594 19.457031 108.613281 19.457031 C 108.738281 19.457031 108.867188 19.417969 108.972656 19.335938 C 109.238281 19.140625 109.292969 18.765625 109.09375 18.5 L 107.625 16.542969 " fill-opacity="1" fill-rule="nonzero"/><path fill="#56cb24" d="M 112.007812 15.691406 L 111.117188 18.21875 C 111.007812 18.53125 111.171875 18.871094 111.484375 18.980469 C 111.546875 19.003906 111.617188 19.015625 111.683594 19.015625 C 111.929688 19.015625 112.160156 18.863281 112.246094 18.617188 L 113.136719 16.089844 C 113.246094 15.777344 113.082031 15.433594 112.769531 15.324219 C 112.457031 15.214844 112.117188 15.378906 112.007812 15.691406 " fill-opacity="1" fill-rule="nonzero"/><path fill="#56cb24" d="M 104.058594 21.859375 C 104.074219 22.179688 104.339844 22.425781 104.65625 22.425781 C 104.667969 22.425781 104.679688 22.425781 104.6875 22.425781 L 107.363281 22.277344 C 107.695312 22.261719 107.945312 21.976562 107.929688 21.648438 C 107.910156 21.316406 107.628906 21.0625 107.296875 21.082031 L 104.625 21.230469 C 104.292969 21.246094 104.039062 21.53125 104.058594 21.859375 " fill-opacity="1" fill-rule="nonzero"/><g fill="#efefef" fill-opacity="1"><g transform="translate(6.402094, 21.512815)"><g><path d="M 5.890625 0.1875 C 4.960938 0.1875 4.140625 0.078125 3.421875 -0.140625 C 2.710938 -0.367188 2.117188 -0.664062 1.640625 -1.03125 C 1.160156 -1.40625 0.789062 -1.816406 0.53125 -2.265625 L 1.984375 -4.03125 L 2.203125 -4.03125 C 2.609375 -3.4375 3.117188 -2.960938 3.734375 -2.609375 C 4.347656 -2.253906 5.066406 -2.078125 5.890625 -2.078125 C 6.585938 -2.078125 7.113281 -2.222656 7.46875 -2.515625 C 7.832031 -2.816406 8.015625 -3.226562 8.015625 -3.75 C 8.015625 -4.0625 7.957031 -4.320312 7.84375 -4.53125 C 7.726562 -4.75 7.535156 -4.929688 7.265625 -5.078125 C 7.003906 -5.234375 6.644531 -5.367188 6.1875 -5.484375 L 4.484375 -5.875 C 3.285156 -6.144531 2.394531 -6.59375 1.8125 -7.21875 C 1.226562 -7.851562 0.9375 -8.679688 0.9375 -9.703125 C 0.9375 -10.453125 1.125 -11.109375 1.5 -11.671875 C 1.875 -12.242188 2.421875 -12.6875 3.140625 -13 C 3.859375 -13.3125 4.71875 -13.46875 5.71875 -13.46875 C 6.738281 -13.46875 7.613281 -13.332031 8.34375 -13.0625 C 9.070312 -12.800781 9.6875 -12.390625 10.1875 -11.828125 L 8.890625 -10.046875 L 8.671875 -10.046875 C 8.296875 -10.441406 7.863281 -10.738281 7.375 -10.9375 C 6.894531 -11.132812 6.34375 -11.234375 5.71875 -11.234375 C 5 -11.234375 4.445312 -11.101562 4.0625 -10.84375 C 3.6875 -10.59375 3.5 -10.242188 3.5 -9.796875 C 3.5 -9.378906 3.628906 -9.046875 3.890625 -8.796875 C 4.160156 -8.546875 4.617188 -8.351562 5.265625 -8.21875 L 7.015625 -7.84375 C 8.304688 -7.570312 9.238281 -7.109375 9.8125 -6.453125 C 10.394531 -5.804688 10.6875 -4.960938 10.6875 -3.921875 C 10.6875 -3.085938 10.507812 -2.363281 10.15625 -1.75 C 9.800781 -1.132812 9.257812 -0.65625 8.53125 -0.3125 C 7.8125 0.0195312 6.929688 0.1875 5.890625 0.1875 Z M 5.890625 0.1875 "/></g></g></g><g fill="#efefef" fill-opacity="1"><g transform="translate(17.810762, 21.512815)"><g><path d="M 5.375 0 L 2.75 0 L 0.359375 -10.015625 L 2.703125 -10.015625 L 4.171875 -3.25 L 4.359375 -3.25 L 6.265625 -10.015625 L 8.453125 -10.015625 L 10.421875 -3.25 L 10.609375 -3.25 L 12.03125 -10.015625 L 14.296875 -10.015625 L 11.953125 0 L 9.3125 0 L 7.40625 -6.828125 L 7.21875 -6.828125 Z M 5.375 0 "/></g></g></g><g fill="#efefef" fill-opacity="1"><g transform="translate(32.462183, 21.512815)"><g><path d="M 2.703125 -11.21875 C 2.242188 -11.21875 1.867188 -11.351562 1.578125 -11.625 C 1.296875 -11.90625 1.15625 -12.265625 1.15625 -12.703125 C 1.15625 -13.128906 1.296875 -13.476562 1.578125 -13.75 C 1.867188 -14.03125 2.242188 -14.171875 2.703125 -14.171875 C 3.003906 -14.171875 3.269531 -14.109375 3.5 -13.984375 C 3.738281 -13.859375 3.921875 -13.679688 4.046875 -13.453125 C 4.179688 -13.234375 4.25 -12.984375 4.25 -12.703125 C 4.25 -12.421875 4.179688 -12.164062 4.046875 -11.9375 C 3.921875 -11.71875 3.738281 -11.539062 3.5 -11.40625 C 3.269531 -11.28125 3.003906 -11.21875 2.703125 -11.21875 Z M 1.4375 0 L 1.4375 -10.015625 L 3.96875 -10.015625 L 3.96875 0 Z M 1.4375 0 "/></g></g></g><g fill="#efefef" fill-opacity="1"><g transform="translate(37.857683, 21.512815)"><g><path d="M 1.75 0 L 1.75 -8.03125 L 0.34375 -8.03125 L 0.34375 -10.03125 L 1.75 -10.03125 C 1.644531 -10.457031 1.59375 -10.851562 1.59375 -11.21875 C 1.59375 -11.851562 1.738281 -12.394531 2.03125 -12.84375 C 2.320312 -13.300781 2.738281 -13.644531 3.28125 -13.875 C 3.832031 -14.113281 4.484375 -14.234375 5.234375 -14.234375 C 6.335938 -14.234375 7.164062 -14.046875 7.71875 -13.671875 L 7.125 -11.8125 L 6.9375 -11.78125 C 6.5625 -12.039062 6.078125 -12.171875 5.484375 -12.171875 C 5.035156 -12.171875 4.695312 -12.0625 4.46875 -11.84375 C 4.238281 -11.625 4.125 -11.320312 4.125 -10.9375 C 4.125 -10.769531 4.132812 -10.617188 4.15625 -10.484375 C 4.175781 -10.347656 4.210938 -10.195312 4.265625 -10.03125 L 7.140625 -10.03125 L 7.140625 -8.03125 L 4.265625 -8.03125 L 4.265625 0 Z M 1.75 0 "/></g></g></g><g fill="#efefef" fill-opacity="1"><g transform="translate(45.088017, 21.512815)"><g><path d="M 6.921875 -2.390625 L 7.5625 -0.53125 C 7.289062 -0.300781 6.945312 -0.125 6.53125 0 C 6.125 0.125 5.660156 0.1875 5.140625 0.1875 C 4.054688 0.1875 3.234375 -0.101562 2.671875 -0.6875 C 2.109375 -1.28125 1.828125 -2.140625 1.828125 -3.265625 L 1.828125 -8.03125 L 0.296875 -8.03125 L 0.296875 -10.03125 L 1.828125 -10.03125 L 1.828125 -11.984375 L 4.34375 -12.390625 L 4.34375 -10.03125 L 7.1875 -10.03125 L 7.1875 -8.03125 L 4.34375 -8.03125 L 4.34375 -3.453125 C 4.34375 -2.953125 4.445312 -2.585938 4.65625 -2.359375 C 4.863281 -2.140625 5.160156 -2.03125 5.546875 -2.03125 C 5.992188 -2.03125 6.382812 -2.148438 6.71875 -2.390625 Z M 6.921875 -2.390625 "/></g></g></g><g fill="#efefef" fill-opacity="1"><g transform="translate(52.872437, 21.512815)"><g><path d="M 4.359375 0 L 1.71875 0 L 1.71875 -13.28125 L 4.359375 -13.28125 Z M 4.359375 0 "/></g></g></g><g fill="#efefef" fill-opacity="1"><g transform="translate(58.958271, 21.512815)"><g><path d="M 6.921875 -2.390625 L 7.5625 -0.53125 C 7.289062 -0.300781 6.945312 -0.125 6.53125 0 C 6.125 0.125 5.660156 0.1875 5.140625 0.1875 C 4.054688 0.1875 3.234375 -0.101562 2.671875 -0.6875 C 2.109375 -1.28125 1.828125 -2.140625 1.828125 -3.265625 L 1.828125 -8.03125 L 0.296875 -8.03125 L 0.296875 -10.03125 L 1.828125 -10.03125 L 1.828125 -11.984375 L 4.34375 -12.390625 L 4.34375 -10.03125 L 7.1875 -10.03125 L 7.1875 -8.03125 L 4.34375 -8.03125 L 4.34375 -3.453125 C 4.34375 -2.953125 4.445312 -2.585938 4.65625 -2.359375 C 4.863281 -2.140625 5.160156 -2.03125 5.546875 -2.03125 C 5.992188 -2.03125 6.382812 -2.148438 6.71875 -2.390625 Z M 6.921875 -2.390625 "/></g></g></g><g fill="#efefef" fill-opacity="1"><g transform="translate(66.742691, 21.512815)"><g><path d="M 7.046875 0.1875 C 5.210938 0.1875 3.851562 -0.242188 2.96875 -1.109375 C 2.082031 -1.984375 1.640625 -3.273438 1.640625 -4.984375 L 1.640625 -13.28125 L 4.21875 -13.28125 L 4.21875 -5 C 4.21875 -4.03125 4.445312 -3.300781 4.90625 -2.8125 C 5.375 -2.332031 6.085938 -2.09375 7.046875 -2.09375 C 8.929688 -2.09375 9.875 -3.0625 9.875 -5 L 9.875 -13.28125 L 12.4375 -13.28125 L 12.4375 -4.984375 C 12.4375 -3.273438 11.992188 -1.984375 11.109375 -1.109375 C 10.222656 -0.242188 8.867188 0.1875 7.046875 0.1875 Z M 7.046875 0.1875 "/></g></g></g><g fill="#efefef" fill-opacity="1"><g transform="translate(80.821859, 21.512815)"><g><path d="M 1.4375 4.0625 L 1.4375 -10.015625 L 3.96875 -10.015625 L 3.96875 -8.71875 L 4.15625 -8.671875 C 4.445312 -9.179688 4.84375 -9.566406 5.34375 -9.828125 C 5.84375 -10.085938 6.425781 -10.21875 7.09375 -10.21875 C 7.894531 -10.21875 8.597656 -10.023438 9.203125 -9.640625 C 9.804688 -9.253906 10.273438 -8.671875 10.609375 -7.890625 C 10.941406 -7.117188 11.109375 -6.15625 11.109375 -5 C 11.109375 -3.863281 10.929688 -2.90625 10.578125 -2.125 C 10.222656 -1.351562 9.726562 -0.773438 9.09375 -0.390625 C 8.46875 -0.00390625 7.742188 0.1875 6.921875 0.1875 C 6.296875 0.1875 5.753906 0.0820312 5.296875 -0.125 C 4.847656 -0.332031 4.46875 -0.65625 4.15625 -1.09375 L 3.96875 -1.0625 L 3.96875 4.0625 Z M 6.21875 -1.9375 C 6.96875 -1.9375 7.535156 -2.179688 7.921875 -2.671875 C 8.316406 -3.171875 8.515625 -3.945312 8.515625 -5 C 8.515625 -6.0625 8.316406 -6.835938 7.921875 -7.328125 C 7.535156 -7.828125 6.96875 -8.078125 6.21875 -8.078125 C 5.519531 -8.078125 4.960938 -7.820312 4.546875 -7.3125 C 4.140625 -6.800781 3.9375 -6.03125 3.9375 -5 C 3.9375 -3.976562 4.140625 -3.210938 4.546875 -2.703125 C 4.960938 -2.191406 5.519531 -1.9375 6.21875 -1.9375 Z M 6.21875 -1.9375 "/></g></g></g></svg>